<svg width="160" height="160" viewBox="0 0 160 160" fill="none" xmlns="http://www.w3.org/2000/svg">
<path d="M44.1333 71.9333C53.7333 90.8 69.2 106.2 88.0667 115.867L102.733 101.2C104.533 99.4 107.2 98.8 109.533 99.6C117 102.067 125.067 103.4 133.333 103.4C137 103.4 140 106.4 140 110.067V133.333C140 137 137 140 133.333 140C70.7333 140 20 89.2667 20 26.6667C20 23 23 20 26.6667 20H50C53.6667 20 56.6667 23 56.6667 26.6667C56.6667 35 58 43 60.4667 50.4667C61.2 52.8 60.6667 55.4 58.8 57.2667L44.1333 71.9333Z" fill="black"/>
</svg>
